<svg xmlns="http://www.w3.org/2000/svg" width="55.416" height="61.711" viewBox="0 0 55.416 61.711">
  <g>
    <circle cx="665.459" cy="374.095" r="6.951" transform="translate(-590.399 492.973) rotate(-67.5)" fill="#ffff7b"/>
    <circle cx="40.17" cy="41.835" r="7.546" fill="#ffff7b"/>
    <circle cx="680.307" cy="383.704" r="7.897" transform="matrix(0.383, -0.924, 0.924, 0.383, -590.11, 512.623)" fill="#ffff7b"/>
    <path d="M676,368.621c-.418,1.767-.658,3.08-.658,3.08a30.325,30.325,0,0,0,8.365-.651,9.171,9.171,0,0,0,.687-16.96,30.348,30.348,0,0,0-8.286-1.325,22.811,22.811,0,0,0,2.3,4.19c-4.454,1.084-9.939,4.985-9.939,4.985A66.278,66.278,0,0,0,676,368.621Z" transform="translate(-655.579 -352.765)" fill="#ffff7b"/>
    <path d="M711,376.168a30.31,30.31,0,0,0-4.823-6.865,9.17,9.17,0,0,0-14.942,8.052,30.338,30.338,0,0,0,3.082,7.8s1.076-.792,2.48-1.942a66.159,66.159,0,0,0,9.306,3.838,70.118,70.118,0,0,0,.857-11.093C709,376.082,711,376.168,711,376.168Z" transform="translate(-655.579 -352.765)" fill="#ffff7b"/>
    <circle cx="7.52" cy="38.044" r="7.52" fill="#ffff7b"/>
    <circle cx="23.526" cy="49.381" r="7.866" fill="#ffff7b"/>
    <circle cx="663.195" cy="407.525" r="6.951" transform="translate(-712.294 -241.271) rotate(-9.217)" fill="#ffff7b"/>
  </g>
</svg>
