<svg xmlns="http://www.w3.org/2000/svg" width="857.668" height="135.708" viewBox="0 0 857.668 135.708">
  <g>
    <path d="M278.491,344.908c-2.795,2.1-7.269,3.575-11.645,3.986-.468,9.89-5.313,13.837-12.02,14.385l-.373,1.536q3.633.267,7.267.522-2.982,12.966-5.961,25.9a20.772,20.772,0,0,0-.654,4.813,7.933,7.933,0,0,0,1.119,4.518c1.582,2.469,5.216,4.144,8.944,4.418a59.943,59.943,0,0,0,10.9-.357q4.051-5.346,8.1-10.719-.651-.389-1.3-.781c-2.329,2.122-6.057,5.457-10.9,5.121-1.771-.122-4.565-.931-4.565-4.413a17.915,17.915,0,0,1,.651-3.7q2.749-11.989,5.5-24.009,5.634.357,11.273.685,1.582-2.218,3.167-4.446-6.708-.372-13.416-.791Q276.535,353.247,278.491,344.908Z" transform="translate(-254.453 -315.784)" fill="#ffffff"/>
    <path d="M340.265,402.266c-2.329-.085-4.937-1.592-4.937-4.581a18.244,18.244,0,0,1,.651-4.019q2.048-7.748,4.1-15.5a19.779,19.779,0,0,0,.837-5.074c0-2.908-1.77-9.985-10.621-10.29-10.526-.37-17.888,6.483-21.241,9.652q3.029-13.3,6.057-26.628-9.132.951-18.26,1.812c.028.528.059,1.052.09,1.58,1.864.09,4.475.214,4.475,3.451a7.525,7.525,0,0,1-.189,1.739q-5.866,25.606-11.738,51.089,5.918.36,11.831.69,1.68-7.3,3.356-14.605c2.515-11.156,6.335-15.264,10.9-18.834a13.43,13.43,0,0,1,8.1-2.732c2.608.1,4.661,1.846,4.661,4.3a32.235,32.235,0,0,1-.84,4.534q-1.954,7.608-3.914,15.2a25.708,25.708,0,0,0-1.024,5.219c0,3.86,3.26,7.254,6.429,8.352a21.813,21.813,0,0,0,6.147,1.045q5.125-3.006,10.249-6.041l-.837-1.613C342.222,402.163,341.2,402.3,340.265,402.266Z" transform="translate(-254.453 -315.784)" fill="#ffffff"/>
    <path d="M388.815,384.955c3.259-.923,12.017-4.465,12.017-11.126,0-5.152-3.821-9.59-16.489-9.745-16.4-.184-33.354,10.291-33.354,26.3,0,11.09,8.386,19.41,23.2,19.772a48.992,48.992,0,0,0,13.416-1.667,18.047,18.047,0,0,1,2.888-.481,2.7,2.7,0,0,1,1.491.468q3.494-7.961,6.987-15.949l-1.584-.817c-2.609,3.96-8.851,13.189-20.308,12.94-5.126-.111-8.292-2.135-9.784-3.673-1.3-1.357-3.352-3.792-3.352-9.706a20.118,20.118,0,0,1,.279-3.523C373.07,387.615,381.173,387.059,388.815,384.955Zm-5.126-15.833c3.076.041,5.5,2.019,5.5,4.322,0,3.174-4.193,9.562-23.758,9.923C370.834,370.611,380.987,369.088,383.689,369.122Z" transform="translate(-254.453 -315.784)" fill="#ffffff"/>
    <path d="M484.082,378.287c4.242-.075,6.23,2.06,6.23,4.751a15.183,15.183,0,0,1-.4,2.822q-2.121,9.771-4.242,19.524c-1.721,7.954-3.182,14.642-15.243,14.745-18.426.132-26.511-16.554-26.511-30.655,0-19.069,12.989-40.671,33.935-41.118,7.026-.143,14.713,2.233,19.883,7.876,4.11,4.386,4.772,8.861,5.3,12.183.618-.013,1.238-.029,1.856-.044q1.654-14.536,3.314-29.091a11.05,11.05,0,0,1-7.158,2.892,27.071,27.071,0,0,1-5.436-.628,92.055,92.055,0,0,0-17.9-1.494c-37.779.835-54.612,30.826-54.612,51.753,0,10.523,4.374,21.577,13.388,28.073,7.687,5.449,14.713,7.312,42.287,7.08q13.586-.132,27.173-.349.267-1.287.532-2.575c-2.254-.346-4.376-.956-4.376-4.805a10.4,10.4,0,0,1,.4-2.828q2.121-9.844,4.242-19.708c3.047-14.183,3.978-18.314,10.073-19.11.223-.861.442-1.724.665-2.585q-16.376.416-32.744.721Q484.414,377,484.082,378.287Z" transform="translate(-254.453 -315.784)" fill="#ffffff"/>
    <path d="M579.012,358.826c-7.026.266-13.124,3.98-16.039,5.891a38.666,38.666,0,0,0-10.87,11.994,33.889,33.889,0,0,0,.264-4.4,22.5,22.5,0,0,0-2.916-11.529q-10.869,1.2-21.739,2.355v2.575c5.966-.173,8.22,3.621,8.22,10.195a56.535,56.535,0,0,1-1.326,10.477q-4.374,19.96-8.75,39.867,8.417-.166,16.835-.362,2.52-11.6,5.038-23.225c1.458-6.752,2.916-12.346,5.832-18.248,2.784-5.769,9.145-10.631,15.378-10.846a10.823,10.823,0,0,1,7.289,2.339q3.579-8.482,7.158-16.988C582.06,358.841,580.338,358.776,579.012,358.826Z" transform="translate(-254.453 -315.784)" fill="#ffffff"/>
    <path d="M650.869,410.754c-1.988,1.383-3.847,2.623-5.966,2.7-2.784.1-4.508-2.194-4.508-5.2a59.509,59.509,0,0,1,1.194-6.059q2.718-12.787,5.433-25.594a57.6,57.6,0,0,0,1.195-8.163c0-12.7-16.57-11.986-20.282-11.834a96.551,96.551,0,0,0-14.315,2.032c-1.724.333-10.208,2.758-12.2,2.836-2.386.093-3.712-1.024-5.17-2.4q-2.52,11.8-5.038,23.578c.752-.029,1.5-.055,2.254-.083a31.328,31.328,0,0,1,6.628-8.823,35.21,35.21,0,0,1,20.281-8.346c6.23-.254,10.6,1.654,10.606,6.356a27.517,27.517,0,0,1-.532,4.594q-.528,2.241-1.06,4.479c-15.243,2.453-50.238,8.51-50.238,30.9,0,8.424,6.759,14.721,18.955,14.357a35.009,35.009,0,0,0,26.643-12.974c1.326,7.915,5.436,10.523,11.932,11.353q7.689-5.812,15.375-11.65C651.662,412.124,651.267,411.439,650.869,410.754Zm-24.26-16.9c-1.458,6.842-3.844,13.584-9.412,18.074-1.856,1.5-5.966,4.239-10.869,4.4-6.1.2-9.014-3.353-9.014-7.251,0-10.782,15.378-18.469,30.489-20.486Z" transform="translate(-254.453 -315.784)" fill="#ffffff"/>
    <path d="M725.114,357.282c-7.157-3.006-11.265-2.83-31.414-1.957q-11.4.5-22.8,1-.264,1.191-.527,2.386c5.565.021,6.361,3.275,6.361,4.85a26.684,26.684,0,0,1-.8,4.9q-7.092,33.349-14.184,66.568c-2.386,11.358-5.568,13.682-10.6,14.1q-.267,1.187-.53,2.373,16.569-.5,33.139-1.008.264-1.191.53-2.384c-1.59-.082-7.29-.434-7.29-4.771a19.075,19.075,0,0,1,.528-3.829q1.989-9.262,3.978-18.539a116.865,116.865,0,0,0,15.111.664c30.622-1.023,42.287-23.535,42.287-40.389C738.9,371.825,735.056,361.5,725.114,357.282Zm-31.546,57.2c-2.784.1-9.014-.47-9.016-7.049,0-1.184,1.062-5.829,1.326-7.287q3.912-18.375,7.822-36.786c2.915-.388,5.17-.484,6.361-.533,14.582-.623,20.812,8.911,20.814,19.227C720.875,398.072,707.617,414,693.568,414.484Z" transform="translate(-254.453 -315.784)" fill="#ffffff"/>
    <path d="M802.412,381.065c4.639-1.611,17.1-7.455,17.1-17.511,0-7.77-5.436-14.325-23.463-13.692-23.329.84-47.457,18.3-47.457,42.432,0,16.719,11.932,28.406,33.007,27.829,7.556-.207,12.328-1.533,19.09-3.443a24.458,24.458,0,0,1,4.107-.907,3.583,3.583,0,0,1,2.123.618q4.971-12.23,9.941-24.488-1.128-.57-2.254-1.145c-3.712,6.134-12.594,20.4-28.9,20.848-7.292.2-11.8-2.59-13.92-4.787-1.853-1.942-4.771-5.444-4.771-14.36a32.634,32.634,0,0,1,.4-5.335C780.01,386.162,791.542,384.733,802.412,381.065Zm-7.29-23.557c4.374-.15,7.819,2.678,7.819,6.155,0,4.829-5.963,14.6-33.8,16.745C776.828,360.7,791.278,357.632,795.122,357.508Z" transform="translate(-254.453 -315.784)" fill="#ffffff"/>
    <path d="M917.219,325.73q-12.66.137-25.317.37c-.178.9-.354,1.812-.532,2.717,1.858.1,4.376.6,4.376,3.985,0,1.489-.53,2.989-2.784,7.086q-15.773,29.561-31.549,59-2.85-27.05-5.7-54.054c-.266-2.685-.53-5.643-.53-6.989,0-4.041.928-7.166,6.23-8.378q.333-1.358.664-2.714-15.444.394-30.887.894-.33,1.353-.662,2.707c2.916.576,4.772,1.594,5.964,11.231q3.714,29.449,7.423,58.96c.4,3.624.53,6.581.53,7.119,0,5.245-2.251,6.09-3.843,6.659q-.334,1.349-.662,2.7,13.784-.252,27.571-.421.264-1.354.53-2.707a2.985,2.985,0,0,1-2.518-2.934c0-2.158,1.722-5.149,2.254-5.966q17.829-31.139,35.657-62.416c5.966-10.515,9.013-12.862,13.123-14.129Q916.887,327.092,917.219,325.73Z" transform="translate(-254.453 -315.784)" fill="#ffffff"/>
    <path d="M932.214,337.845c5.568-.024,11.268-5.072,11.268-12.842,0-6.408-4.242-9.254-9.014-9.218-6.5.046-11.268,6.08-11.268,12.873A8.813,8.813,0,0,0,932.214,337.845Z" transform="translate(-254.453 -315.784)" fill="#ffffff"/>
    <path d="M936.456,407.408a6.683,6.683,0,0,1-6.362-6.969,51.654,51.654,0,0,1,1.988-12.105q2.319-8.976,4.64-17.963c1.722-6.535,1.856-7.623,1.856-11.71,0-5.449-2.254-8.442-3.978-10.753q-10.338.915-20.68,1.887v2.714c1.991.253,7.161-.189,7.161,7.15,0,3.534-1.725,10.472-1.856,11.014l-4.111,16.585c-.529,2.037-1.059,4.214-1.724,6.388a39.483,39.483,0,0,0-1.458,9.5,13.858,13.858,0,0,0,9.28,13.172,25.878,25.878,0,0,0,8.352,1.391q7.29-5.064,14.585-10.115-.6-1.162-1.2-2.326C940.964,406.348,938.976,407.423,936.456,407.408Z" transform="translate(-254.453 -315.784)" fill="#ffffff"/>
    <path d="M1026.075,409.524c-3.448-.137-7.157-2.476-7.157-7.155a29.713,29.713,0,0,1,1.059-6.3q2.916-12.151,5.832-24.311a46.8,46.8,0,0,0,1.062-7.956c0-4.4-2.251-15.67-15.114-16.009a31.485,31.485,0,0,0-13.648,2.844c-7.424,3.145-11.136,7.062-16.968,14.912.129-1.367.129-2.737.129-3.97,0-7.946-1.99-11.4-3.841-13.473q-11,.752-22.01,1.592v2.73a10.96,10.96,0,0,1,4.513,1.119c2.908,1.52,4.371,5.087,4.371,8.779a45.184,45.184,0,0,1-.931,7.917q-4.773,23.184-9.546,46.322,8.357.11,16.709.267,2.39-11.512,4.772-23.037c3.712-17.73,9.016-24.224,15.636-29.991,2.394-2.148,7.029-4.663,11.537-4.557a6.533,6.533,0,0,1,6.628,6.628,53.932,53.932,0,0,1-1.2,7.116q-2.85,12.016-5.7,24.025a42.611,42.611,0,0,0-1.326,8.065,14.419,14.419,0,0,0,9.145,12.932,29.072,29.072,0,0,0,8.755,1.556q7.285-4.749,14.574-9.468l-1.318-2.539C1028.725,409.356,1027.4,409.579,1026.075,409.524Z" transform="translate(-254.453 -315.784)" fill="#ffffff"/>
    <path d="M1078.321,414.318c-7.292-.47-11.8-3.776-13.923-6.253-1.853-2.184-4.772-6.082-4.772-15.354a35.281,35.281,0,0,1,.4-5.514c12.6.1,24.13-.289,35-3.014,4.642-1.22,17.1-5.994,17.1-16.44,0-8.065-5.438-15.51-23.466-16.637-23.331-1.442-47.451,14.781-47.449,39.883,0,17.4,11.925,30.464,33,31.8,7.553.486,12.325-.432,19.09-1.748a22.32,22.32,0,0,1,4.113-.53,3.817,3.817,0,0,1,2.119.856q4.971-12.21,9.939-24.43-1.128-.719-2.256-1.43C1103.5,401.507,1094.624,415.391,1078.321,414.318Zm9.409-55.351c4.376.271,7.817,3.559,7.817,7.176,0,5.051-5.961,14.5-33.8,14.222C1069.436,360.536,1083.884,358.708,1087.73,358.967Z" transform="translate(-254.453 -315.784)" fill="#ffffff"/>
  </g>
</svg>
